<svg width="58" height="59" viewBox="0 0 58 59" fill="none" xmlns="http://www.w3.org/2000/svg">
<path d="M9.85767 4.45166L12.4415 0.978322L14.1512 2.29062L11.5674 5.76395L9.85767 4.45166Z" fill="#A4AFC1"/>
<path d="M2.43042 14.444L5.01425 10.9706L6.72395 12.2829L4.14012 15.7563L2.43042 14.444Z" fill="#A4AFC1"/>
<path d="M0.956909 3.76575L2.24746 2.02803L5.66892 4.64985L4.37837 6.38756L0.956909 3.76575Z" fill="#A4AFC1"/>
<path d="M25.8558 25.3708C28.2228 25.3708 30.1416 23.4217 30.1416 21.0174C30.1416 18.613 28.2228 16.6639 25.8558 16.6639C23.4888 16.6639 21.5699 18.613 21.5699 21.0174C21.5699 23.4217 23.4888 25.3708 25.8558 25.3708Z" fill="white"/>
<path d="M46.7282 22.7611C45.271 21.2809 42.871 21.3375 41.4138 22.8177C41.4138 22.8177 37.4494 27.6065 33.2299 32.7283L30.6563 30.1162C29.1991 28.6361 26.799 28.6361 25.3418 30.1162L15.163 40.4557C15.3344 42.763 17.0916 44.635 19.3417 44.918C19.5345 44.9397 19.7488 44.9615 19.9631 44.9615H23.2975H45.271H53.1784C55.8356 44.9615 58 42.763 58 40.0639V36.1632L46.7282 22.7611Z" fill="#56CCF2"/>
<path d="M44.5042 58.0215C44.0992 58.0215 43.6856 57.9693 43.2763 57.8604L10.1382 48.8466C7.58168 48.1305 6.05806 45.4444 6.72665 42.8497L10.3696 28.6597L13.479 29.4846L9.83603 43.6769C9.61102 44.5519 10.1232 45.4553 10.9804 45.6947L44.0992 54.7042C44.9478 54.9305 45.8286 54.419 46.0514 53.5592L47.1829 48.9228L50.303 49.7064L49.1672 54.3646C48.5951 56.5696 46.6407 58.0215 44.5042 58.0215V58.0215Z" fill="#1D416B"/>
<path d="M53.1752 44.9615H19.9599C17.3005 44.9615 15.1383 42.7652 15.1383 40.0639V15.0315C15.1383 12.3302 17.3005 10.1339 19.9599 10.1339H53.1752C55.8345 10.1339 57.9968 12.3302 57.9968 15.0315V40.0639C57.9968 42.7652 55.8345 44.9615 53.1752 44.9615ZM19.9599 13.399C19.0727 13.399 18.3527 14.1304 18.3527 15.0315V40.0639C18.3527 40.965 19.0727 41.6964 19.9599 41.6964H53.1752C54.0624 41.6964 54.7824 40.965 54.7824 40.0639V15.0315C54.7824 14.1304 54.0624 13.399 53.1752 13.399H19.9599Z" fill="#1D416B"/>
<path d="M25.854 25.3707C23.4903 25.3707 21.5681 23.4182 21.5681 21.0173C21.5681 18.6163 23.4903 16.6638 25.854 16.6638C28.2176 16.6638 30.1398 18.6163 30.1398 21.0173C30.1398 23.4182 28.2176 25.3707 25.854 25.3707ZM25.854 19.9289C25.2625 19.9289 24.7825 20.4165 24.7825 21.0173C24.7825 21.618 25.2625 22.1056 25.854 22.1056C26.4454 22.1056 26.9254 21.618 26.9254 21.0173C26.9254 20.4165 26.4454 19.9289 25.854 19.9289Z" fill="#1D416B"/>
<path d="M17.9253 42.2624L15.6538 39.9551L25.3398 30.1163C26.8056 28.6275 29.1907 28.6275 30.6543 30.1163L33.2451 32.748L41.2039 23.0442C41.9153 22.1778 42.9589 21.6772 44.0668 21.6707C45.2026 21.749 46.2226 22.1517 46.9405 23.0093L57.608 35.6517L55.1672 37.7784L44.4954 25.1316C44.3518 24.9619 44.2468 25.0163 44.084 24.9379C43.9918 24.9379 43.814 24.9662 43.6725 25.136L34.5865 36.2155C34.2972 36.5681 33.8751 36.7814 33.4251 36.801C32.9536 36.8337 32.5358 36.6508 32.2165 36.3243L28.3806 32.428C28.1085 32.1516 27.8835 32.1516 27.6113 32.428L17.9253 42.2624Z" fill="#1D416B"/>
</svg>
